<svg xmlns="http://www.w3.org/2000/svg" xmlns:xlink="http://www.w3.org/1999/xlink" data-name="Calque 1" viewBox="0 0 244.68 79.39">
  <defs>
    <linearGradient id="a" x1="9.54" x2="239.11" y1="30.23" y2="30.23" data-name="Dégradé sans nom 55" gradientUnits="userSpaceOnUse">
      <stop offset="0" stop-color="#00adba"/>
      <stop offset="1" stop-color="#002e56"/>
    </linearGradient>
    <linearGradient xlink:href="#a" id="b" x1="9.54" x2="239.11" data-name="Dégradé sans nom 55"/>
    <linearGradient xlink:href="#a" id="c" x1="9.54" x2="239.11" data-name="Dégradé sans nom 55"/>
    <linearGradient xlink:href="#a" id="d" x1="9.54" x2="239.11" y1="16.93" y2="16.93" data-name="Dégradé sans nom 55"/>
    <linearGradient xlink:href="#a" id="e" x1="9.54" x2="239.11" y1="16.93" y2="16.93" data-name="Dégradé sans nom 55"/>
    <linearGradient xlink:href="#a" id="f" x1="9.54" x2="239.11" y1="14.04" y2="14.04" data-name="Dégradé sans nom 55"/>
    <linearGradient xlink:href="#a" id="g" x1="9.54" x2="239.11" y1="41.54" y2="41.54" data-name="Dégradé sans nom 55"/>
    <linearGradient xlink:href="#a" id="h" x1="9.54" x2="239.11" y1="43.62" y2="43.62" data-name="Dégradé sans nom 55"/>
    <linearGradient xlink:href="#a" id="i" x1="9.54" x2="239.11" y1="45.54" y2="45.54" data-name="Dégradé sans nom 55"/>
    <linearGradient xlink:href="#a" id="j" x1="9.54" x2="239.11" y1="45.01" y2="45.01" data-name="Dégradé sans nom 55"/>
    <linearGradient xlink:href="#a" id="k" x1="9.54" x2="239.11" y1="45.01" y2="45.01" data-name="Dégradé sans nom 55"/>
    <linearGradient xlink:href="#a" id="l" x1="9.54" x2="239.11" y1="42.12" y2="42.12" data-name="Dégradé sans nom 55"/>
    <linearGradient xlink:href="#a" id="m" x1="9.54" x2="239.11" y1="16.93" y2="16.93" data-name="Dégradé sans nom 55"/>
    <linearGradient xlink:href="#a" id="n" x1="9.54" x2="239.11" y1="45.19" y2="45.19" data-name="Dégradé sans nom 55"/>
    <linearGradient xlink:href="#a" id="o" x1="9.54" x2="239.11" y1="45.19" y2="45.19" data-name="Dégradé sans nom 55"/>
    <linearGradient xlink:href="#a" id="p" x1="9.54" x2="239.11" y1="45.01" y2="45.01" data-name="Dégradé sans nom 55"/>
    <linearGradient xlink:href="#a" id="q" x1="9.54" x2="239.11" y1="16.93" y2="16.93" data-name="Dégradé sans nom 55"/>
    <linearGradient xlink:href="#a" id="r" x1="9.54" x2="239.11" y1="16.93" y2="16.93" data-name="Dégradé sans nom 55"/>
    <linearGradient xlink:href="#a" id="s" x1="9.54" x2="239.11" y1="69.22" y2="69.22" data-name="Dégradé sans nom 55"/>
    <linearGradient xlink:href="#a" id="t" x1="9.54" x2="239.11" y1="71.57" y2="71.57" data-name="Dégradé sans nom 55"/>
    <linearGradient xlink:href="#a" id="u" x1="9.54" x2="239.11" y1="71.49" y2="71.49" data-name="Dégradé sans nom 55"/>
    <linearGradient xlink:href="#a" id="v" x1="9.54" x2="239.11" y1="71.49" y2="71.49" data-name="Dégradé sans nom 55"/>
    <linearGradient xlink:href="#a" id="w" x1="9.54" x2="239.11" y1="70.13" y2="70.13" data-name="Dégradé sans nom 55"/>
    <linearGradient xlink:href="#a" id="x" x1="9.54" x2="239.11" y1="69.31" y2="69.31" data-name="Dégradé sans nom 55"/>
    <linearGradient xlink:href="#a" id="y" x1="9.54" x2="239.11" y1="71.57" y2="71.57" data-name="Dégradé sans nom 55"/>
    <linearGradient xlink:href="#a" id="z" x1="9.54" x2="239.11" y1="71.49" y2="71.49" data-name="Dégradé sans nom 55"/>
    <linearGradient xlink:href="#a" id="A" x1="9.54" x2="239.11" y1="72.82" y2="72.82" data-name="Dégradé sans nom 55"/>
    <linearGradient xlink:href="#a" id="B" x1="9.54" x2="239.11" y1="71.65" y2="71.65" data-name="Dégradé sans nom 55"/>
    <linearGradient xlink:href="#a" id="C" x1="9.54" x2="239.11" y1="69.39" y2="69.39" data-name="Dégradé sans nom 55"/>
    <linearGradient xlink:href="#a" id="D" x1="9.54" x2="239.11" y1="69.31" y2="69.31" data-name="Dégradé sans nom 55"/>
    <linearGradient xlink:href="#a" id="E" x1="9.54" x2="239.11" y1="69.31" y2="69.31" data-name="Dégradé sans nom 55"/>
    <linearGradient xlink:href="#a" id="F" x1="9.54" x2="239.11" y1="72.82" y2="72.82" data-name="Dégradé sans nom 55"/>
    <linearGradient xlink:href="#a" id="G" x1="9.54" x2="239.11" y1="71.65" y2="71.65" data-name="Dégradé sans nom 55"/>
    <linearGradient xlink:href="#a" id="H" x1="9.54" x2="239.11" y1="71.49" y2="71.49" data-name="Dégradé sans nom 55"/>
    <linearGradient xlink:href="#a" id="I" x2="239.11" y1="70.13" y2="70.13" data-name="Dégradé sans nom 55"/>
    <linearGradient xlink:href="#a" id="J" x1="9.54" x2="239.11" y1="71.49" y2="71.49" data-name="Dégradé sans nom 55"/>
    <linearGradient xlink:href="#a" id="K" x1="9.54" x2="239.11" y1="71.49" y2="71.49" data-name="Dégradé sans nom 55"/>
    <linearGradient xlink:href="#a" id="L" x1="9.54" x2="239.11" y1="71.49" y2="71.49" data-name="Dégradé sans nom 55"/>
    <linearGradient xlink:href="#a" id="M" x1="9.54" x2="239.11" y1="69.31" y2="69.31" data-name="Dégradé sans nom 55"/>
    <linearGradient xlink:href="#a" id="N" x1="9.54" x2="239.11" y1="70.13" y2="70.13" data-name="Dégradé sans nom 55"/>
    <linearGradient xlink:href="#a" id="O" x1="9.54" x2="239.11" y1="71.57" y2="71.57" data-name="Dégradé sans nom 55"/>
    <linearGradient xlink:href="#a" id="P" x1="9.54" x2="239.11" y1="71.49" y2="71.49" data-name="Dégradé sans nom 55"/>
    <linearGradient xlink:href="#a" id="Q" x1="9.54" x2="239.11" y1="69.31" y2="69.31" data-name="Dégradé sans nom 55"/>
    <linearGradient xlink:href="#a" id="R" x1="9.54" x2="239.11" y1="71.57" y2="71.57" data-name="Dégradé sans nom 55"/>
    <linearGradient xlink:href="#a" id="S" x1="9.54" x2="239.11" y1="69.31" y2="69.31" data-name="Dégradé sans nom 55"/>
    <linearGradient xlink:href="#a" id="T" x1="9.54" x2="239.11" y1="71.49" y2="71.49" data-name="Dégradé sans nom 55"/>
    <linearGradient xlink:href="#a" id="U" x1="9.54" x2="239.11" y1="74.73" y2="74.73" data-name="Dégradé sans nom 55"/>
    <linearGradient xlink:href="#a" id="V" x1="9.54" x2="239.11" y1="68.81" y2="68.81" data-name="Dégradé sans nom 55"/>
    <linearGradient xlink:href="#a" id="W" x1="9.54" x2="239.11" y1="62.64" y2="62.64" data-name="Dégradé sans nom 55"/>
    <linearGradient xlink:href="#a" id="X" x1="9.54" x2="239.11" y1="56.47" y2="56.47" data-name="Dégradé sans nom 55"/>
    <linearGradient xlink:href="#a" id="Y" x1="9.54" x2="239.11" y1="50.31" y2="50.31" data-name="Dégradé sans nom 55"/>
    <linearGradient xlink:href="#a" id="Z" x1="9.54" x2="239.11" y1="45.11" y2="45.11" data-name="Dégradé sans nom 55"/>
    <linearGradient xlink:href="#a" id="aa" x1="9.54" x2="239.11" y1="39.92" y2="39.92" data-name="Dégradé sans nom 55"/>
    <linearGradient xlink:href="#a" id="ab" x1="9.54" x2="239.11" y1="34.88" y2="34.88" data-name="Dégradé sans nom 55"/>
    <linearGradient xlink:href="#a" id="ac" x1="9.54" x2="239.11" y1="30.69" y2="30.69" data-name="Dégradé sans nom 55"/>
    <linearGradient xlink:href="#a" id="ad" x1="9.54" x2="239.11" y1="26.25" y2="26.25" data-name="Dégradé sans nom 55"/>
    <linearGradient xlink:href="#a" id="ae" x1="9.54" x2="239.11" y1="21.63" y2="21.63" data-name="Dégradé sans nom 55"/>
    <linearGradient xlink:href="#a" id="af" x1="9.54" x2="239.11" y1="16.85" y2="16.85" data-name="Dégradé sans nom 55"/>
    <linearGradient xlink:href="#a" id="ag" x1="9.54" x2="239.11" y1="11.97" y2="11.97" data-name="Dégradé sans nom 55"/>
    <linearGradient xlink:href="#a" id="ah" x1="9.54" x2="239.11" y1="6.25" y2="6.25" data-name="Dégradé sans nom 55"/>
  </defs>
  <path fill="url(#a)" d="M147.85 20.7c0 4.24 3.47 7.7 7.7 7.7h12.35c4.24 0 7.7 3.47 7.7 7.7v12.35c0 4.24 3.47 7.7 7.7 7.7h8.69c4.24 0 7.7-3.47 7.7-7.7V12c0-4.24-3.47-7.7-7.7-7.7h-36.45a7.72 7.72 0 0 0-7.7 7.7v8.7Z"/>
  <path fill="url(#b)" d="M214.32 4.3h8.7a7.7 7.7 0 0 1 7.7 7.7v36.45a7.7 7.7 0 0 1-7.7 7.7h-8.7a7.7 7.7 0 0 1-7.7-7.7V12a7.7 7.7 0 0 1 7.7-7.7Z"/>
  <path fill="url(#c)" d="M7.72 4.3h8.69a7.7 7.7 0 0 1 7.7 7.7v36.45a7.7 7.7 0 0 1-7.7 7.7H7.72a7.7 7.7 0 0 1-7.71-7.7V12a7.7 7.7 0 0 1 7.71-7.7Z"/>
  <path fill="url(#d)" d="M40.34 17.11v-4.83c0-.88-.7-1.58-1.58-1.58s-1.58.7-1.58 1.58v10.09c0 .44.35.79.79.79h8.69v4.91H36.57a5.68 5.68 0 0 1-5.7-5.7V12.28c0-3.6 3.55-6.49 7.9-6.49s7.9 2.9 7.9 6.49v4.83h-6.32Z"/>
  <path fill="url(#e)" d="M66.49 12.28v7.28h-9.48v2.81c0 .44.35.79.79.79h8.69v4.91H56.4a5.68 5.68 0 0 1-5.7-5.7V12.28c0-3.6 3.55-6.49 7.9-6.49s7.9 2.9 7.9 6.49Zm-6.32 2.37v-2.37c0-.88-.7-1.58-1.58-1.58s-1.58.7-1.58 1.58v2.37h3.16Z"/>
  <path fill="url(#f)" d="M97.72 11.06v10.53c0 .88.7 1.58 1.58 1.58h2.28v4.91H99.3c-4.34 0-7.9-2.9-7.9-6.49V11.06h-2.45V6.15h2.45V0h6.32v6.14h3.86v4.91h-3.86Z"/>
  <path fill="url(#g)" d="M35.27 34.11h2.94V48.8h-2.2l-.14-.14a2.9 2.9 0 0 1-1.33.31c-2.02 0-3.67-1.35-3.67-3.02v-4.49c0-1.68 1.65-3.02 3.67-3.02.26 0 .51.04.73.1v-4.43Zm0 7.35a.73.73 0 1 0-1.46 0v4.49c0 .41.33.73.73.73s.73-.32.73-.73v-4.49Z"/>
  <path fill="url(#h)" d="M46.66 41.46v3.39h-4.41v1.31c0 .2.16.37.37.37h4.04v2.28h-4.69a2.64 2.64 0 0 1-2.65-2.65v-4.69c0-1.68 1.65-3.02 3.67-3.02s3.67 1.35 3.67 3.02Zm-2.94 1.1v-1.1a.74.74 0 1 0-1.47 0v1.1h1.47Z"/>
  <path fill="url(#i)" d="M68.46 40.36v6.14c0 3.6-3.55 6.49-7.9 6.49a9.8 9.8 0 0 1-2.54-.35c-.22.44-.39.97-.39 1.49 0 .44.35.79.79.79h3.77c3.47 0 6.27 2.9 6.27 6.49v.44h-6.32c.04-.13.04-.26.04-.44 0-.88-.7-1.58-1.58-1.58h-2.41c-3.47 0-6.32-2.55-6.32-5.7 0-1.76.66-3.38 1.71-4.61a5.7 5.7 0 0 1-.92-3.03v-6.14c0-3.6 3.55-6.49 7.9-6.49.31 0 .61 0 .92.04a21.83 21.83 0 0 1 4.08-4.7l2.99 3.55a13.24 13.24 0 0 0-2.63 2.81 5.99 5.99 0 0 1 2.54 4.78Zm-6.32 0c0-.88-.7-1.58-1.58-1.58s-1.58.7-1.58 1.58v6.14c0 .88.7 1.58 1.58 1.58s1.58-.7 1.58-1.58v-6.14Z"/>
  <path fill="url(#j)" d="M87.59 40.36v7.28h-9.48v2.81c0 .44.35.79.79.79h8.69v4.91H77.5a5.68 5.68 0 0 1-5.7-5.7V40.36c0-3.6 3.55-6.49 7.9-6.49s7.9 2.9 7.9 6.49Zm-6.32 2.37v-2.37c0-.88-.7-1.58-1.58-1.58s-1.58.7-1.58 1.58v2.37h3.16Z"/>
  <path fill="url(#k)" d="M106.63 50.45a5.7 5.7 0 0 1-5.7 5.7H90.84v-4.91h8.69c.44 0 .79-.35.79-.79v-2.02c0-.88-.7-1.58-1.58-1.58-4.34 0-7.9-2.9-7.9-6.49s3.55-6.49 7.9-6.49c2.59 0 5.04.57 7.15 1.62l-2.46 4.25a11.7 11.7 0 0 0-4.69-.97c-.88 0-1.58.7-1.58 1.58s.7 1.58 1.58 1.58c4.34 0 7.9 2.9 7.9 6.5v2.02Z"/>
  <path fill="url(#l)" d="M116.45 39.14v10.53c0 .88.7 1.58 1.58 1.58h2.28v4.91h-2.28c-4.35 0-7.9-2.89-7.9-6.49V39.14h-2.46v-4.91h2.46v-6.14h6.32v6.14h3.86v4.91h-3.86Z"/>
  <path fill="url(#m)" d="M138.13 19.57v-7.28c0-3.6-3.56-6.49-7.9-6.49s-7.9 2.9-7.9 6.49v10.09c0 .78.16 1.52.44 2.19h5.92v3.51h9.44v-4.91h-8.69a.79.79 0 0 1-.79-.79v-2.81h9.48Zm-9.48-7.29c0-.88.7-1.58 1.58-1.58s1.58.7 1.58 1.58v2.37h-3.16v-2.37Z"/>
  <path fill="url(#n)" d="M122.38 34.22h6.32v21.94h-6.32z"/>
  <path fill="url(#o)" d="M148.74 40.36v9.65c0 3.6-3.56 6.5-7.9 6.5s-7.9-2.9-7.9-6.5v-9.65c0-3.6 3.56-6.49 7.9-6.49s7.9 2.9 7.9 6.49Zm-6.32 9.65v-9.65c0-.88-.7-1.58-1.58-1.58s-1.58.7-1.58 1.58v9.65c0 .88.7 1.58 1.58 1.58s1.58-.7 1.58-1.58Z"/>
  <path fill="url(#p)" d="M161.07 33.87c-4.35 0-7.89 2.9-7.89 6.49v15.79h6.32V40.36c0-.88.7-1.58 1.58-1.58s1.58.7 1.58 1.58v15.79h6.32V40.36c0-3.6-3.56-6.49-7.9-6.49Z"/>
  <path fill="#c7124a" d="M118.05 26.16h9.05v6.47h-9.05z"/>
  <path fill="url(#q)" d="M78.81 5.79c-4.34 0-7.89 2.9-7.89 6.49v15.79h6.32V12.28c0-.88.7-1.58 1.58-1.58s1.58.7 1.58 1.58v15.79h6.32V12.28c0-3.6-3.56-6.49-7.9-6.49Z"/>
  <path fill="url(#r)" d="M111.72 5.79c-4.34 0-7.9 2.9-7.9 6.49v15.79h6.32V12.28c0-.88.7-1.58 1.58-1.58s1.58.7 1.58 1.58v2.4h6.32v-2.4c0-3.6-3.56-6.49-7.9-6.49Z"/>
  <path fill="url(#s)" d="M3.21 64.58v1.85h2.06v1.52H3.21v8.76H1.42v-8.76H0v-1.52h1.42V64.6c0-1.58 1.36-2.86 3.04-2.86.8 0 1.52.31 2.04.82l-1.13 1.13a1.27 1.27 0 0 0-2.16.89Z"/>
  <path fill="url(#t)" d="M13.37 69.02v5.1c0 1.52-1.5 2.76-3.37 2.76s-3.37-1.23-3.37-2.76v-5.1c0-1.52 1.5-2.76 3.37-2.76s3.37 1.23 3.37 2.76Zm-1.77 5.1v-5.1c0-.7-.72-1.23-1.6-1.23s-1.6.54-1.6 1.23v5.1c0 .68.72 1.23 1.6 1.23s1.6-.56 1.6-1.23Z"/>
  <path fill="url(#u)" d="m17.81 66.43.04.33a3.12 3.12 0 0 1 1.71-.49c1.87 0 3.37 1.23 3.37 2.76v7.69h-1.77v-7.69c0-.7-.72-1.23-1.6-1.23s-1.6.54-1.6 1.23v7.69h-1.77V66.44h1.62Z"/>
  <path fill="url(#v)" d="M30.73 71.57V69c0-.66-.72-1.21-1.6-1.21s-1.6.56-1.6 1.21v5.04c0 .64.47 1.15 1.03 1.15h3.95v1.52h-4.07a2.66 2.66 0 0 1-2.67-2.67V69c0-1.5 1.5-2.74 3.37-2.74s3.37 1.23 3.37 2.74v2.57h-1.77Z"/>
  <path fill="url(#w)" d="M37.23 67.95v5.99c0 .7.56 1.25 1.26 1.25h.8v1.52h-.8c-1.69 0-3.04-1.28-3.04-2.86v-5.9h-1.42v-1.52h1.42v-2.88h1.79v2.88h2.06v1.52h-2.06Z"/>
  <path fill="url(#x)" d="M42.87 63.67h-1.91V61.9h1.91v1.77Zm-.09 2.76h-1.77v10.28h1.77V66.43Z"/>
  <path fill="url(#y)" d="M52.35 69.02v5.1c0 1.52-1.5 2.76-3.37 2.76s-3.37-1.23-3.37-2.76v-5.1c0-1.52 1.5-2.76 3.37-2.76s3.37 1.23 3.37 2.76Zm-1.77 5.1v-5.1c0-.7-.72-1.23-1.6-1.23s-1.6.54-1.6 1.23v5.1c0 .68.72 1.23 1.6 1.23s1.6-.56 1.6-1.23Z"/>
  <path fill="url(#z)" d="m56.79 66.43.04.33a3.12 3.12 0 0 1 1.71-.49c1.87 0 3.37 1.23 3.37 2.76v7.69h-1.77v-7.69c0-.7-.72-1.23-1.6-1.23s-1.6.54-1.6 1.23v7.69h-1.77V66.44h1.62Z"/>
  <path fill="url(#A)" d="M76.5 69.02v5.1c0 1.52-1.5 2.76-3.37 2.76-.6 0-1.15-.18-1.6-.45v2.96h-1.77V66.43h1.62l.04.33a3.12 3.12 0 0 1 1.71-.49c1.87 0 3.37 1.23 3.37 2.76Zm-4.98 5.1c0 .7.72 1.23 1.6 1.23s1.6-.54 1.6-1.23v-5.1c0-.7-.72-1.23-1.6-1.23s-1.6.54-1.6 1.23v5.1Z"/>
  <path fill="url(#B)" d="M81.11 66.43v7.69c0 .68.72 1.23 1.6 1.23s1.6-.56 1.6-1.23v-7.69h1.77v10.28h-1.62l-.04-.33a3.3 3.3 0 0 1-1.71.49c-1.87 0-3.37-1.23-3.37-2.76v-7.69h1.77Z"/>
  <path fill="url(#C)" d="M95.9 69.02v5.1c0 1.52-1.5 2.76-3.37 2.76s-3.37-1.23-3.37-2.76V61.9h1.77v4.81a3.15 3.15 0 0 1 1.6-.45c1.87 0 3.37 1.23 3.37 2.76Zm-1.77 0c0-.7-.72-1.23-1.6-1.23s-1.6.54-1.6 1.23v5.1c0 .68.72 1.23 1.6 1.23s1.6-.56 1.6-1.23v-5.1Z"/>
  <path fill="url(#D)" d="M100.42 73.93c0 .7.58 1.25 1.28 1.25h.74v1.52h-.74c-1.69 0-3.04-1.28-3.04-2.86V61.89h1.77v12.03Z"/>
  <path fill="url(#E)" d="M105.98 63.67h-1.91V61.9h1.91v1.77Zm-.09 2.76h-1.77v10.28h1.77V66.43Z"/>
  <path fill="url(#F)" d="M108.71 74.12v-5.1c0-1.52 1.5-2.76 3.37-2.76s3.37 1.23 3.37 2.76v10.37h-1.77v-2.96c-.45.27-1.01.45-1.6.45-1.87 0-3.37-1.23-3.37-2.76Zm1.77 0c0 .68.72 1.23 1.6 1.23s1.6-.56 1.6-1.23v-5.1c0-.7-.72-1.23-1.6-1.23s-1.6.54-1.6 1.23v5.1Z"/>
  <path fill="url(#G)" d="M120.17 66.43v7.69c0 .68.72 1.23 1.6 1.23s1.6-.56 1.6-1.23v-7.69h1.77v10.28h-1.62l-.04-.33a3.3 3.3 0 0 1-1.71.49c-1.87 0-3.37-1.23-3.37-2.76v-7.69h1.77Z"/>
  <path fill="url(#H)" d="M134.71 69.02v2.78h-4.98v2.24c0 .64.47 1.15 1.05 1.15h3.93v1.52h-4.07a2.66 2.66 0 0 1-2.67-2.67v-5.02c0-1.52 1.5-2.76 3.37-2.76s3.37 1.23 3.37 2.76Zm-4.98 1.27h3.21v-1.27c0-.7-.72-1.23-1.6-1.23s-1.6.54-1.6 1.23v1.27Z"/>
  <path fill="url(#I)" d="M144.38 67.95v5.99c0 .7.56 1.25 1.26 1.25h.8v1.52h-.8c-1.69 0-3.04-1.28-3.04-2.86v-5.9h-1.42v-1.52h1.42v-2.88h1.79v2.88h2.06v1.52h-2.06Z"/>
  <path fill="url(#J)" d="M154.75 69.02v2.78h-4.98v2.24c0 .64.47 1.15 1.05 1.15h3.93v1.52h-4.07a2.66 2.66 0 0 1-2.67-2.67v-5.02c0-1.52 1.5-2.76 3.37-2.76s3.37 1.23 3.37 2.76Zm-4.98 1.27h3.21v-1.27c0-.7-.72-1.23-1.6-1.23s-1.6.54-1.6 1.23v1.27Z"/>
  <path fill="url(#K)" d="M162.54 71.57v-2.55c0-.7-.72-1.23-1.6-1.23s-1.6.54-1.6 1.23v7.69h-1.77V66.43h1.62l.04.33a3.12 3.12 0 0 1 1.71-.49c1.87 0 3.37 1.23 3.37 2.76v2.55h-1.77Z"/>
  <path fill="url(#L)" d="M171.49 71.57v-2.55c0-.7-.72-1.23-1.6-1.23s-1.6.54-1.6 1.23v7.69h-1.77V66.43h1.62l.04.33a3.12 3.12 0 0 1 1.71-.49c1.87 0 3.37 1.23 3.37 2.76v2.55h-1.77Z"/>
  <path fill="url(#M)" d="M177.29 63.67h-1.91V61.9h1.91v1.77Zm-.08 2.76h-1.77v10.28h1.77V66.43Z"/>
  <path fill="url(#N)" d="M182.12 67.95v5.99c0 .7.56 1.25 1.26 1.25h.8v1.52h-.8c-1.69 0-3.04-1.28-3.04-2.86v-5.9h-1.42v-1.52h1.42v-2.88h1.79v2.88h2.06v1.52h-2.06Z"/>
  <path fill="url(#O)" d="M192.49 69.02v5.1c0 1.52-1.5 2.76-3.37 2.76s-3.37-1.23-3.37-2.76v-5.1c0-1.52 1.5-2.76 3.37-2.76s3.37 1.23 3.37 2.76Zm-1.77 5.1v-5.1c0-.7-.72-1.23-1.6-1.23s-1.6.54-1.6 1.23v5.1c0 .68.72 1.23 1.6 1.23s1.6-.56 1.6-1.23Z"/>
  <path fill="url(#P)" d="M200.29 71.57v-2.55c0-.7-.72-1.23-1.6-1.23s-1.6.54-1.6 1.23v7.69h-1.77V66.43h1.62l.04.33a3.12 3.12 0 0 1 1.71-.49c1.87 0 3.37 1.23 3.37 2.76v2.55h-1.77Z"/>
  <path fill="url(#Q)" d="M206.09 63.67h-1.91V61.9h1.91v1.77Zm-.08 2.76h-1.77v10.28h1.77V66.43Z"/>
  <path fill="url(#R)" d="M215.7 69v7.71h-1.62l-.04-.35c-.47.31-1.07.51-1.71.51-1.87 0-3.37-1.23-3.37-2.76v-1.73c0-1.52 1.5-2.76 3.37-2.76.6 0 1.15.16 1.6.43v-1.07c0-.66-.72-1.21-1.6-1.21-.74 0-1.44.18-2.04.49l-.76-1.3a5.8 5.8 0 0 1 2.8-.72c1.85 0 3.37 1.23 3.37 2.74Zm-1.77 5.12v-1.73c0-.7-.72-1.23-1.6-1.23s-1.61.53-1.61 1.23v1.73c0 .68.72 1.23 1.61 1.23s1.6-.56 1.6-1.23Z"/>
  <path fill="url(#S)" d="M220.41 73.93c0 .7.58 1.25 1.28 1.25h.74v1.52h-.74c-1.69 0-3.04-1.28-3.04-2.86V61.89h1.77v12.03Z"/>
  <path fill="url(#T)" d="M230.69 69.02v2.78h-4.98v2.24c0 .64.47 1.15 1.05 1.15h3.93v1.52h-4.07a2.66 2.66 0 0 1-2.67-2.67v-5.02c0-1.52 1.5-2.76 3.37-2.76s3.37 1.23 3.37 2.76Zm-4.98 1.27h3.21v-1.27c0-.7-.72-1.23-1.6-1.23s-1.6.54-1.6 1.23v1.27Z"/>
  <path fill="url(#U)" d="M242.53 72.86h.58c.82 0 1.48.66 1.48 1.48v2.26h-.84v-2.18c0-.32-.29-.58-.64-.58h-.58c-.38 0-.68.4-.68.89 0 1.04-.69 1.87-1.53 1.87s-1.52-.83-1.52-1.87c0-.56.15-1.1.4-1.55l.72.42c-.17.34-.27.72-.27 1.13 0 .49.31.89.67.89.39 0 .7-.4.7-.89 0-1.03.67-1.87 1.52-1.87Z"/>
  <path fill="url(#V)" d="M240.31 66.93h4.28v.9l-.19.02c.17.26.29.59.29.95 0 1.04-.69 1.87-1.53 1.87h-.96c-.85 0-1.53-.83-1.53-1.87 0-.33.09-.64.24-.89h-.59c-.36 0-.67.4-.67.89 0 .41.1.8.27 1.13l-.72.42c-.25-.46-.4-.98-.4-1.55 0-1.03.69-1.87 1.52-1.87Zm2.84.99h-.96c-.39 0-.69.4-.69.89s.3.89.69.89h.96c.38 0 .68-.4.68-.89s-.31-.89-.68-.89Z"/>
  <path fill="url(#W)" d="m237.49 61.15.63.36-.65 1.13.65 1.13-.63.37-.87-1.5.87-1.5Zm2.83-.38h2.83c.84 0 1.53.83 1.53 1.87s-.69 1.87-1.53 1.87h-2.83c-.84 0-1.53-.83-1.53-1.87s.69-1.87 1.53-1.87Zm2.83.98h-2.83c-.39 0-.68.4-.68.89s.3.89.68.89h2.83c.38 0 .68-.4.68-.89s-.31-.89-.68-.89Z"/>
  <path fill="url(#X)" d="m238.88 57.44.18-.02a1.74 1.74 0 0 1-.27-.95c0-1.04.69-1.87 1.53-1.87h4.27v.98h-4.27c-.39 0-.68.4-.68.89s.3.89.68.89h4.27v.98h-5.71v-.9Z"/>
  <path fill="url(#Y)" d="M240.32 48.43h1.54v2.77h1.24c.35 0 .64-.26.64-.58v-2.18h.84v2.26c0 .82-.66 1.48-1.48 1.48h-2.79c-.84 0-1.53-.83-1.53-1.87s.69-1.87 1.53-1.87Zm.71 2.77v-1.78h-.71c-.39 0-.68.4-.68.89s.3.89.68.89h.71Z"/>
  <path fill="url(#Z)" d="M240.4 44.18h.77v1.87h-.77v-1.87Z"/>
  <path fill="url(#aa)" d="M240.32 38.04h1.54v2.76h1.24c.35 0 .64-.26.64-.58v-2.18h.84v2.26c0 .82-.66 1.48-1.48 1.48h-2.79c-.84 0-1.53-.83-1.53-1.87s.69-1.87 1.53-1.87Zm.71 2.77v-1.78h-.71c-.39 0-.68.4-.68.89s.3.89.68.89h.71Z"/>
  <path fill="url(#ab)" d="M239.73 34.56h3.32a.7.7 0 0 0 .7-.7v-.45h.84v.45c0 .94-.71 1.69-1.59 1.69h-3.28v.79h-.84v-.79h-1.6v-.99h1.6v-1.14h.84v1.14Z"/>
  <path fill="url(#ac)" d="M240.4 29.76h.77v1.87h-.77v-1.87Z"/>
  <path fill="url(#ad)" d="M243.05 26.32a.7.7 0 0 0 .7-.71v-.41h.84v.41c0 .94-.71 1.69-1.59 1.69h-6.63v-.98h6.68Z"/>
  <path fill="url(#ae)" d="M240.32 19.75h2.83c.84 0 1.53.83 1.53 1.87s-.69 1.87-1.53 1.87h-2.83c-.84 0-1.53-.83-1.53-1.87s.69-1.87 1.53-1.87Zm2.83.98h-2.83c-.39 0-.68.4-.68.89s.3.89.68.89h2.83c.38 0 .68-.4.68-.89s-.31-.89-.68-.89Z"/>
  <path fill="url(#af)" d="M237.35 16.32v1.06h-.98v-1.06h.98Zm1.53.04v.98h5.71v-.98h-5.71Z"/>
  <path fill="url(#ag)" d="M241.74 11.08h-1.42c-.39 0-.68.4-.68.89s.3.89.68.89h4.27v.98h-5.71v-.9l.18-.02a1.74 1.74 0 0 1-.27-.95c0-1.04.69-1.87 1.53-1.87h1.42v.98Z"/>
  <path fill="url(#ah)" d="M240.32 4.37h1.54v2.76h1.24c.35 0 .64-.26.64-.58V4.37h.84v2.26c0 .82-.66 1.48-1.48 1.48h-2.79c-.84 0-1.53-.83-1.53-1.87s.69-1.87 1.53-1.87Zm.71 2.77V5.36h-.71c-.39 0-.68.4-.68.89s.3.89.68.89h.71Z"/>
</svg>